Coordinates
version=1
nRows=15
nColumns=34
inDegrees=yes

Units are S.I. units (second, meters, Newtons, ...)
If the header above contains a line with 'inDegrees', this indicates whether rotational values are in degrees (yes) or radians (no).

endheader
time	pelvis_tilt	pelvis_list	pelvis_rotation	pelvis_tx	pelvis_ty	pelvis_tz	hip_flexion_r	hip_adduction_r	hip_rotation_r	knee_angle_r	ankle_angle_r	subtalar_angle_r	mtp_angle_r	hip_flexion_l	hip_adduction_l	hip_rotation_l	knee_angle_l	ankle_angle_l	subtalar_angle_l	mtp_angle_l	lumbar_extension	lumbar_bending	lumbar_rotation	arm_flex_r	arm_add_r	arm_rot_r	elbow_flex_r	pro_sup_r	arm_flex_l	arm_add_l	arm_rot_l	elbow_flex_l	pro_sup_l
      1.21666670	     -2.22851769	      2.08372987	     28.17082808	      0.35608328	      0.99142937	     -0.12588822	     -1.29851927	      1.24630205	    -13.94849447	      0.00000000	     -3.32526122	     -3.06352260	      0.00000000	     -0.21884844	      4.62843882	    -16.41544930	      0.00000000	     -5.21628964	      8.41987676	      0.00000000	     -6.61893071	     -1.92077927	      1.93023618	      1.94762185	     -3.47438972	     -7.83695161	     26.80012745	     90.41688259	      6.83794043	     -6.94444762	     11.64250230	     24.00022629	     84.35628999
      1.23333330	     -2.23421708	      2.06803649	     28.17452462	      0.35908818	      0.98738401	     -0.12759309	     -1.24435565	      1.22914918	    -13.95252128	      0.00000000	     -3.32861901	     -3.06543151	      0.00000000	     -0.30142472	      4.61795046	    -16.41139224	      0.00000000	     -5.21857871	      8.42416102	      0.00000000	     -6.62845397	     -1.91626881	      1.93324284	      1.94983701	     -3.47522860	     -7.83730654	     26.79579853	     90.41681005	      6.83843366	     -6.94655518	     11.64303719	     23.99978146	     84.35676665
      1.25000000	     -2.18622126	      2.09258542	     27.99505736	      0.35664514	      0.98863258	     -0.12573185	     -1.18902423	      1.20358055	    -14.06325395	      0.00000000	     -3.36883762	     -3.10040928	      0.00000000	     -0.32607210	      4.62479134	    -16.39334260	      0.00000000	     -5.18510412	      8.43755749	      0.00000000	     -6.67250898	     -1.88120872	      1.94519797	      1.89238709	     -3.48421270	     -7.84209428	     26.73808784	     90.41593248	      6.78408884	     -6.95503068	     11.65129199	     23.98309069	     84.36107112
      1.26666670	     -2.18549286	      2.11217551	     27.86337709	      0.35614674	      0.98701654	     -0.12575947	     -1.11302390	      1.18746712	    -14.20410710	      0.00000000	     -3.47384692	     -3.12884788	      0.00000000	     -0.37532994	      4.62288966	    -16.37636569	      0.00000000	     -5.13850323	      8.46353128	      0.00000000	     -6.75082721	     -1.86626947	      1.99877887	      1.90910707	     -3.50791631	     -7.85043459	     26.67911320	     90.41417468	      6.74421372	     -6.97741489	     11.66041801	     23.97282498	     84.36719554
      1.28333330	     -1.92474946	      2.23436201	     27.84134471	      0.35663273	      0.98997587	     -0.12601666	     -1.46251226	      1.21081300	    -14.43271169	      0.00000000	     -3.69149531	     -3.09037930	      0.00000000	     -0.75757537	      4.56628258	    -16.46859256	      0.00000000	     -4.82835662	      8.99959261	      0.00000000	     -7.16491821	     -1.88725506	      2.18976781	      2.31515987	     -3.49627066	     -7.94858037	     25.74206634	     90.37596505	      6.90833154	     -7.00504013	     11.92706182	     24.17116849	     84.53168633
      1.30000000	     -1.95738955	      2.21597585	     27.82678697	      0.35764133	      0.98674417	     -0.12690008	     -1.47591746	      1.20154160	    -14.42963369	      0.00000000	     -3.68628009	     -3.09048121	      0.00000000	     -0.78550373	      4.54420730	    -16.46232115	      0.00000000	     -4.82537058	      9.00242204	      0.00000000	     -7.16904864	     -1.88357222	      2.18517376	      2.31592360	     -3.49739041	     -7.94886851	     25.74105966	     90.37579779	      6.91524835	     -7.00438720	     11.92770391	     24.17328795	     84.53217809
      1.31666670	     -1.94403802	      2.17176756	     27.65303763	      0.35676644	      0.98799877	     -0.12577801	     -1.45447698	      1.23446225	    -14.39215674	      0.00000000	     -3.60678230	     -3.09377213	      0.00000000	     -0.81567326	      4.47669682	    -16.36727159	      0.00000000	     -4.78274679	      9.03934653	      0.00000000	     -7.17584603	     -1.83433955	      2.14767741	      2.28134595	     -3.50531903	     -7.95164959	     25.72161127	     90.37438647	      6.93947330	     -6.99648156	     11.93442425	     24.18515787	     84.53613154
      1.33333330	     -1.79629249	      2.04878908	     27.65739253	      0.35877293	      0.98135706	     -0.12735476	     -1.68335778	      1.41425115	    -14.06625267	      0.00000000	     -3.22423529	     -3.08612854	      0.00000000	     -1.00044834	      4.27395674	    -15.99310820	      0.00000000	     -4.40576079	      9.16124571	      0.00000000	     -7.00423365	     -1.57123901	      2.20465894	      2.21741678	     -3.55482056	     -7.96269741	     25.67080218	     90.36735166	      6.84004736	     -6.97628000	     11.96792751	     24.20560923	     84.55251631
      1.35000000	     -1.81048152	      2.04452290	     27.58392483	      0.35916538	      0.98567762	     -0.12672578	     -1.67206781	      1.38039681	    -14.06836793	      0.00000000	     -3.16971192	     -3.09419899	      0.00000000	     -0.95320370	      4.27276710	    -15.99093106	      0.00000000	     -4.30706683	      9.14809697	      0.00000000	     -7.08521106	     -1.57691037	      2.16176564	      2.15126770	     -3.56620195	     -7.96830668	     25.63506801	     90.36476866	      6.82852867	     -6.92964013	     11.98417204	     24.21184313	     84.55792318
      1.36666670	     -1.84331379	      2.03344688	     27.58046904	      0.35891003	      0.98284797	     -0.12655186	     -1.78628197	      1.38572369	    -14.06648524	      0.00000000	     -3.16859366	     -3.09317854	      0.00000000	     -0.89063282	      4.27913625	    -15.99060519	      0.00000000	     -4.29726699	      9.14689434	      0.00000000	     -7.08173939	     -1.57812272	      2.16564783	      2.15253604	     -3.56663674	     -7.96861971	     25.63472399	     90.36453780	      6.82411492	     -6.92953604	     11.98505600	     24.21140707	     84.55829271
      1.38333330	     -1.81311536	      2.09819701	     27.73535792	      0.35646952	      0.98993627	     -0.12557721	     -1.81981008	      1.34811618	    -14.01212871	      0.00000000	     -3.15763163	     -3.06423912	      0.00000000	     -0.84220084	      4.31012520	    -16.01931947	      0.00000000	     -4.21021332	      9.12214066	      0.00000000	     -7.05519134	     -1.61518670	      2.16155614	      2.11695135	     -3.55158929	     -7.97050090	     25.61881495	     90.36223651	      6.80748235	     -6.92668210	     11.99450477	     24.21338195	     84.56225130
      1.40000000	     -1.73857335	      2.12325706	     27.73775804	      0.35606947	      0.98794475	     -0.12528065	     -1.79112803	      1.34464384	    -14.00578659	      0.00000000	     -3.14834083	     -3.06166494	      0.00000000	     -0.80337660	      4.32812023	    -16.02357118	      0.00000000	     -4.20308164	      9.11924090	      0.00000000	     -7.05664771	     -1.61851882	      2.15300191	      2.10893307	     -3.54923848	     -7.97083905	     25.61538228	     90.36189035	      6.81360323	     -6.92690529	     11.99560727	     24.21533642	     84.56278496
      1.41666670	     -1.74433003	      2.16227395	     27.87201780	      0.35528051	      0.99039520	     -0.12471834	     -1.68595179	      1.29511208	    -13.90015934	      0.00000000	     -3.05169793	     -3.00807927	      0.00000000	     -0.61199496	      4.41406151	    -16.17577782	      0.00000000	     -4.16519595	      9.03591148	      0.00000000	     -7.21545594	     -1.64945038	      2.02875569	      2.08242333	     -3.49748464	     -7.97242393	     25.58657569	     90.35711927	      6.99115642	     -6.91656165	     12.01162213	     24.25928263	     84.57066121
      1.43333330	     -1.68251021	      2.16088028	     27.88624685	      0.35508869	      0.98526098	     -0.12397286	     -1.56477996	      1.33940379	    -13.91092244	      0.00000000	     -2.97000521	     -2.97903289	      0.00000000	     -0.48301220	      4.41471881	    -16.37401425	      0.00000000	     -4.28031857	      8.93756353	      0.00000000	     -7.26542791	     -1.72993273	      2.02904016	      2.29727611	     -3.44995800	     -7.97597143	     25.64577605	     90.34982820	      7.14726050	     -6.94739026	     12.03467628	     24.29415957	     84.58161821
      1.45000000	     -1.60204364	      2.19417646	     27.90345808	      0.35296604	      0.99025307	     -0.12329842	     -1.45920483	      1.36161541	    -13.90953704	      0.00000000	     -2.96826555	     -2.97563589	      0.00000000	     -0.49259634	      4.44630585	    -16.38542691	      0.00000000	     -4.29362038	      8.93461204	      0.00000000	     -7.26030757	     -1.72783322	      2.02786096	      2.29133128	     -3.44545490	     -7.97570917	     25.64396127	     90.34956868	      7.14562227	     -6.95000803	     12.03591141	     24.29384750	     84.58212703
